<?xml version="1.0" encoding="utf-8"?>
<!-- Generator: Adobe Illustrator 26.0.0, SVG Export Plug-In . SVG Version: 6.00 Build 0)  -->
<svg version="1.1" id="Capa_1" xmlns="http://www.w3.org/2000/svg" xmlns:xlink="http://www.w3.org/1999/xlink" x="0px" y="0px"
	 viewBox="0 0 595.28 841.89" style="enable-background:new 0 0 595.28 841.89;" xml:space="preserve">
<g>
	<path d="M-870.66,184.14c13.02,10.19,26.09,20.33,39.06,30.59c9.52,7.53,19.06,15.06,28.29,22.94c2.49,2.12,4.51,5.3,5.63,8.39
		c2.37,6.53,4.21,13.28,5.87,20.04c0.76,3.09,2.22,3.89,5.18,3.76c4.65-0.2,9.31,0.05,13.97,0.05c150,0.01,300.01-0.01,450.01,0.1
		c3.8,0,6.32-0.87,8.02-4.28c0.81-1.62,2.03-3.04,3.06-4.55c4.17-6.09,9.29-7.86,13.74-4.76c4.8,3.36,5.07,8.37,0.72,14.76
		c-4.49,6.59-9.02,13.15-13.54,19.73c-39.77,57.96-79.58,115.88-119.21,173.93c-3.49,5.11-7.62,7.29-13.65,7.28
		c-56-0.08-111.99-0.05-167.99-0.05c-41.33,0-82.66-0.03-123.99,0.09c-1.99,0.01-4.8,0.81-5.84,2.25
		c-16.84,23.5-33.45,47.17-50.11,70.8c-0.27,0.38-0.42,0.85-0.97,2c2.23,0,4.13,0,6.02,0c135.84,0,271.67,0,407.51,0.02
		c2.31,0,4.72-0.01,6.9,0.63c4.11,1.2,6.53,4.36,6.2,8.56c-0.32,3.98-2.27,7.35-6.95,7.89c-1.96,0.23-3.93,0.63-5.9,0.63
		c-142.17,0.03-284.34,0.03-426.5,0.03c-0.67,0-1.33,0.01-2,0c-4.13-0.11-8.09-0.8-10.27-4.81c-2.29-4.23-0.5-8.03,1.93-11.54
		c3.97-5.74,8.03-11.42,12.06-17.12c15.54-21.98,31.06-43.97,46.68-65.9c1.91-2.68,2.21-5.02,1.28-8.26
		c-19.35-67.43-38.54-134.9-57.85-202.34c-0.59-2.08-1.86-4.34-3.5-5.68c-19.74-16.07-39.59-32-59.47-47.9
		c-7.51-6.01-6.94-12.83,1.59-17.3C-873.32,184.14-871.99,184.14-870.66,184.14z M-453.42,335.69c23.5,0,46.55,0,69.67,0
		c0-18.57,0-36.94,0-55.37c-23.41,0-46.44,0-69.67,0C-453.42,298.69-453.42,316.77-453.42,335.69z M-533.51,280.23
		c0,18.56,0,36.6,0,54.9c23.4,0,46.45,0,69.52,0c0-18.5,0-36.71,0-54.9C-487.32,280.23-510.27,280.23-533.51,280.23z
		 M-464.03,453.96c0-17.62,0-34.68,0-51.49c-23.5,0-46.58,0-69.6,0c0,17.35,0,34.3,0,51.49
		C-510.32,453.96-487.24,453.96-464.03,453.96z M-608.89,334.87c21.9,0,43.29,0,64.67,0c0-18.34,0-36.39,0-54.52
		c-21.69,0-43.07,0-64.67,0C-608.89,298.6-608.89,316.51-608.89,334.87z M-683.34,280.17c0,18.01,0,36.01,0,54.49
		c21.4,0,42.6,0,63.73,0c0-18.28,0-36.32,0-54.49C-641,280.17-661.95,280.17-683.34,280.17z M-544.26,454.01
		c0-17.55,0-34.57,0-51.59c-21.72,0-43.1,0-64.41,0c0,17.38,0,34.4,0,51.59C-587,454.01-565.75,454.01-544.26,454.01z
		 M-619.49,402.41c-21.52,0-42.72,0-63.94,0c0,17.39,0,34.43,0,51.56c21.59,0,42.84,0,63.94,0
		C-619.49,436.66-619.49,419.59-619.49,402.41z M-533.66,391.72c23.4,0,46.59,0,69.85,0c0-15.49,0-30.62,0-46.08
		c-23.39,0-46.58,0-69.85,0C-533.66,361.16-533.66,376.28-533.66,391.72z M-753.31,280.3c0,18.21,0,35.95,0,53.59
		c0.65,0.17,0.96,0.33,1.27,0.33c15.48,0.11,30.97,0.19,46.45,0.3c11.71,0.08,11.71,0.1,11.71-11.61c0-14.12,0-28.24,0-42.62
		C-713.91,280.3-733.48,280.3-753.31,280.3z M-544.31,391.71c0-15.6,0-30.83,0-46.25c-21.47,0-42.89,0-64.43,0
		c0,15.5,0,30.72,0,46.25C-587.14,391.71-565.91,391.71-544.31,391.71z M-683.52,391.79c21.56,0,42.63,0,63.91,0
		c0-15.64,0-30.98,0-46.55c-21.51,0-42.59,0-63.91,0C-683.52,360.81-683.52,376.07-683.52,391.79z M-453.4,392.07
		c13.89,0,27.36-0.6,40.74,0.22c8.54,0.52,14.23-1.82,17.83-9.61c1.31-2.82,3.07-5.65,5.27-7.8c8.5-8.29,6.03-18.48,5.9-28.77
		c-23.51,0-46.52,0-69.75,0C-453.4,361.32-453.4,376.25-453.4,392.07z M-753.43,391.69c19.96,0,39.48,0,59.18,0
		c0-15.75,0-31.11,0-46.87c-19.9,0-39.43,0-59.18,0C-753.43,360.35-753.43,375.77-753.43,391.69z M-752.82,402.31
		c4.99,17.55,9.85,34.64,14.69,51.63c14.87,0,29.28,0,43.98,0c0-17.3,0-34.34,0-51.63C-713.6,402.31-732.83,402.31-752.82,402.31z
		 M-373.03,335.48c7.13,2.1,11.25-0.08,14.78-6.05c5.4-9.12,11.95-17.56,17.96-26.33c5.12-7.47,10.17-14.99,15.52-22.88
		c-16.52,0-32.3,0-48.26,0C-373.03,298.76-373.03,317.12-373.03,335.48z M-453.27,402.26c0,17.61,0,34.65,0,51.46
		c6.29,1.59,10.48,0.15,13.72-5.72c3.82-6.93,8.89-13.17,13.38-19.74c5.84-8.54,11.63-17.11,17.67-26
		C-423.84,402.26-438.43,402.26-453.27,402.26z M-763.93,280.33c-7.99,0-15.68,0-23.73,0c5.17,18.15,10.24,35.94,15.29,53.65
		c3.01,0,5.62,0,8.43,0C-763.93,316.04-763.93,298.3-763.93,280.33z M-769.37,344.25c1.76,6.25,3.37,11.96,4.98,17.68
		c0.16-0.05,0.32-0.11,0.49-0.16c0-5.62,0-11.24,0-17.09C-765.58,344.55-767.02,344.43-769.37,344.25z"/>
	<path d="M-747.9,581.21c20.79,0.04,38.5,17.67,38.24,38.08c-0.27,21.19-17.27,38.17-38.51,38.46c-20.38,0.28-38.45-17.56-38.47-38
		C-786.66,598.35-769.4,581.17-747.9,581.21z"/>
	<path d="M-427.39,619.59c0.03,21.03-17.45,38.38-38.39,38.12c-21.31-0.27-37.96-17.11-38.03-38.47
		c-0.08-20.87,16.98-38,37.88-38.05C-444.34,581.14-427.43,597.99-427.39,619.59z"/>
</g>
</svg>
